<svg width="144" height="144" viewBox="0 0 144 144" fill="none" xmlns="http://www.w3.org/2000/svg">
<path d="M81.8647 37.792C100.62 43.3776 111.295 63.1095 105.71 81.8644C100.124 100.619 80.3923 111.295 61.6374 105.709C42.8825 100.124 32.2067 80.392 37.7923 61.6371C43.3779 42.8822 63.1098 32.2064 81.8647 37.792Z" fill="#FFCAD7" stroke="#FF668A" stroke-width="4"/>
<path d="M52.4762 65.1075L66.4247 90.8882C67.5153 92.904 70.0968 93.6194 72.1974 92.4829L88.9814 83.402C91.0821 82.2655 91.9645 79.8405 90.9657 77.9945L78.3374 54.6539C77.7749 53.6142 76.6951 52.9366 75.4383 52.7937L75.3809 52.6876C74.3018 50.6931 71.7203 49.9776 69.6197 51.1142L54.2997 59.4029C52.1991 60.5395 51.3856 63.0917 52.4762 65.1075ZM53.6857 64.4531C52.9624 63.1164 53.5439 61.4028 54.9656 60.6336L70.2855 52.3449C71.7072 51.5757 73.4597 52.0264 74.1829 53.3632L74.424 53.8088C74.5388 54.021 74.7809 54.1643 75.0293 54.1671C75.9689 54.1799 76.7491 54.6081 77.1395 55.3295L89.7677 78.6701C90.4106 79.8583 89.7602 81.4446 88.3386 82.2138L71.5545 91.2946C70.1329 92.0638 68.3804 91.6131 67.6571 90.2763L53.6857 64.4531Z" fill="#FF668A"/>
<path d="M57.6321 64.6495C57.7841 64.677 57.9671 64.6603 58.0944 64.5914L61.0862 62.9727L66.5967 73.1577C66.723 73.3911 66.9978 73.5441 67.256 73.5142C67.3638 73.5107 67.4274 73.4763 67.5123 73.4304C67.6608 73.35 67.7749 73.206 67.8449 73.031L69.0726 69.2671L73.0337 70.251C73.2953 70.3289 73.5729 70.2336 73.7489 70.0012C73.9037 69.7804 73.9374 69.4878 73.8111 69.2544L68.3006 59.0694L74.2206 55.8664C74.454 55.7401 74.6071 55.4653 74.5771 55.2072C74.5622 55.0782 74.4143 53.8415 73.4653 53.2029C73.0465 52.9358 72.3253 52.6676 71.2672 52.9933C71.192 53.0065 71.1708 53.018 71.1284 53.0409L56.2116 61.1115C56.1692 61.1345 56.148 61.146 56.1055 61.1689C55.9897 61.259 55.0011 62.0682 55.2499 63.0857C55.5251 64.2534 57.1107 64.5476 57.6321 64.6495ZM56.9297 62.2866L71.7191 54.2848C72.1257 54.1745 72.4607 54.1853 72.6816 54.3401C72.891 54.4737 73.0058 54.6859 73.0782 54.921L67.0309 58.1929C66.6914 58.3766 66.5648 58.8016 66.7485 59.1411L71.8342 68.541L68.787 67.7759C68.6235 67.7272 68.452 67.7651 68.3034 67.8455C68.1549 67.9258 68.0408 68.0699 67.9709 68.2448L67.0485 71.1029L61.9628 61.703C61.7791 61.3635 61.354 61.2369 61.0145 61.4206L57.6407 63.2459C56.7057 63.0386 56.5891 62.7725 56.5891 62.7725C56.5759 62.6974 56.7519 62.465 56.9297 62.2866Z" fill="#FF668A"/>
<path d="M65.8116 66.2312L66.1108 67.1391C66.147 67.2567 66.2583 67.361 66.3988 67.3673C66.4855 67.3753 66.5394 67.3736 66.603 67.3391C66.6455 67.3162 66.6976 67.2605 66.7286 67.2163L67.2531 66.4114L68.2139 66.4127C68.3544 66.419 68.4703 66.3289 68.5207 66.2193C68.5711 66.1097 68.5659 65.9479 68.4873 65.8533L67.891 65.1062L68.1637 64.1906C68.2027 64.0598 68.1665 63.9422 68.0764 63.8264C67.9765 63.7433 67.8458 63.7043 67.707 63.752L66.8105 64.0724L66.0153 63.5152C65.9155 63.432 65.7749 63.4258 65.6476 63.4947C65.5415 63.5521 65.4699 63.6731 65.4636 63.8136L65.495 64.7842L64.7363 65.3592C64.6417 65.4378 64.5816 65.5801 64.5965 65.7092C64.6115 65.8382 64.7228 65.9426 64.8536 65.9815L65.8116 66.2312ZM66.125 65.2388C66.2196 65.1602 66.27 65.0506 66.2665 64.9427L66.2526 64.5114L66.606 64.7591C66.6944 64.821 66.8137 64.8387 66.9313 64.8025L67.3477 64.6595L67.2211 65.0846C67.1918 65.1827 67.2068 65.3118 67.2854 65.4064L67.5557 65.7539L67.0802 65.7369C67.0263 65.7386 66.9724 65.7404 66.9087 65.7748C66.8663 65.7978 66.8141 65.8534 66.7831 65.8976L66.547 66.2722L66.404 65.8559C66.3678 65.7383 66.2794 65.6764 66.1699 65.6259L65.7448 65.4993L66.125 65.2388Z" fill="#FF668A"/>
</svg>
