<svg width="51" height="44" viewBox="0 0 51 44" fill="none" xmlns="http://www.w3.org/2000/svg">
<path d="M48.2326 0.713867L39.9386 0.713867C39.3676 0.713867 38.8386 1.01887 38.5536 1.51387L26.8846 21.7259C26.2686 22.7919 24.7296 22.7919 24.1136 21.7259L12.4446 1.51387C12.1586 1.01887 11.6306 0.713867 11.0596 0.713867L2.76558 0.713867C1.53458 0.713867 0.764573 2.04687 1.38057 3.11287L24.1136 42.4879C24.7296 43.5539 26.2686 43.5539 26.8846 42.4879L49.6186 3.11287C50.2336 2.04687 49.4646 0.713867 48.2326 0.713867Z" fill="black"/>
<path d="M26.8846 42.4877L49.6186 3.11269C49.7306 2.91969 49.7826 2.71769 49.8086 2.51569L27.8856 40.4877C27.2696 41.5537 25.7306 41.5537 25.1146 40.4877L2.38059 1.11269C2.32259 1.01269 2.28859 0.907688 2.25459 0.804688C1.34059 1.11269 0.856592 2.20569 1.38059 3.11269L24.1136 42.4877C24.7296 43.5547 26.2696 43.5547 26.8846 42.4877Z" fill="black"/>
<path d="M48.2326 0.713867L39.9386 0.713867C39.3676 0.713867 38.8386 1.01887 38.5536 1.51387L26.8846 21.7259C26.2686 22.7919 24.7296 22.7919 24.1136 21.7259L12.4446 1.51387C12.1586 1.01887 11.6306 0.713867 11.0596 0.713867L2.76558 0.713867C1.53458 0.713867 0.764573 2.04687 1.38057 3.11287L24.1136 42.4879C24.7296 43.5539 26.2686 43.5539 26.8846 42.4879L49.6186 3.11287C50.2336 2.04687 49.4646 0.713867 48.2326 0.713867Z" stroke="black" stroke-miterlimit="10"/>
</svg>
