<svg width="80" height="80" viewBox="0 0 80 80" fill="none" xmlns="http://www.w3.org/2000/svg">
<path d="M58.586 21.414C68.8506 31.6787 68.8506 48.3211 58.586 58.5858C48.3213 68.8504 31.6789 68.8504 21.4143 58.5858C11.1496 48.3211 11.1496 31.6787 21.4143 21.414C31.6789 11.1494 48.3213 11.1494 58.586 21.414Z" stroke="#3E8BFF" stroke-width="4"/>
<mask id="mask0_40_15" style="mask-type:luminance" maskUnits="userSpaceOnUse" x="22" y="24" width="31" height="31">
<path d="M53 24H22V55H53V24Z" fill="white"/>
</mask>
<g mask="url(#mask0_40_15)">
<path d="M50.4834 26.7502L23.0188 37.3959C21.9136 37.8916 21.5398 38.8845 22.7517 39.4233L29.7976 41.674L46.8335 31.091C47.7636 30.4266 48.7159 30.6038 47.8965 31.3346L33.2649 44.651L32.8053 50.2865C33.231 51.1566 34.0105 51.1606 34.5077 50.7282L38.5558 46.878L45.4887 52.0964C47.0989 53.0546 47.9751 52.4362 48.3215 50.68L52.8689 29.0363C53.3411 26.8744 52.5359 25.9219 50.4834 26.7502Z" fill="#3E8BFF"/>
</g>
</svg>
