<svg width="371" height="335" fill="none" xmlns="http://www.w3.org/2000/svg"><g filter="url(#filter0_f_1_288)" fill-rule="evenodd" clip-rule="evenodd"><path d="M346.728 22h-20.827c13.414 91.557-28.203 186.37-112.866 236.869C153.172 294.574 83.867 300.921 22 282.13v21.397c65.699 18.238 138.495 10.623 201.629-27.034C314.738 222.15 359.985 120.593 346.728 22z" fill="#00BDED" fill-opacity=".5"/><path d="M244.143 22c15.571 63.909-11.433 133.103-71.184 168.661-47.807 28.451-104.813 28.368-150.96 4.753v22.597c50.447 22.163 110.583 20.452 161.502-9.851C249.658 168.789 280.356 92.998 265.19 22h-21.047z" fill="#FF668A" fill-opacity=".51"/><path d="M29.309 22l-7.31 13.308v77.505c27.41 35.725 78.284 46.085 118.146 22.543 39.86-23.54 54.625-72.659 35.644-113.356h-23.015c.35.543.694 1.092 1.031 1.647 19.833 32.67 9.059 75.01-24.063 94.572-33.123 19.561-76.052 8.935-95.885-23.734C19.801 71.33 21.12 43.318 34.872 22h-5.563z" fill="#F7B40E" fill-opacity=".51"/></g><defs><filter id="filter0_f_1_288" x="0" y="0" width="371" height="335" filterUnits="userSpaceOnUse" color-interpolation-filters="sRGB"><feFlood flood-opacity="0" result="BackgroundImageFix"/><feBlend in="SourceGraphic" in2="BackgroundImageFix" result="shape"/><feGaussianBlur stdDeviation="11" result="effect1_foregroundBlur_1_288"/></filter></defs></svg>