<svg width="144" height="144" fill="none" xmlns="http://www.w3.org/2000/svg"><path d="M81.865 37.792c18.755 5.586 29.43 25.317 23.845 44.072-5.586 18.755-25.318 29.431-44.073 23.845-18.755-5.585-29.43-25.317-23.845-44.072 5.586-18.755 25.318-29.43 44.073-23.845z" fill="#FFCAD7" stroke="#FF668A" stroke-width="4"/><path d="M52.476 65.108l13.949 25.78c1.09 2.016 3.672 2.731 5.772 1.595l16.784-9.081c2.101-1.136 2.984-3.561 1.985-5.407L78.337 54.654c-.562-1.04-1.642-1.717-2.899-1.86l-.057-.106c-1.08-1.995-3.66-2.71-5.761-1.574L54.3 59.403c-2.1 1.136-2.914 3.689-1.824 5.705zm1.21-.655c-.724-1.337-.142-3.05 1.28-3.82l15.32-8.288c1.421-.77 3.174-.319 3.897 1.018l.241.446a.71.71 0 00.605.358c.94.013 1.72.441 2.11 1.163l12.629 23.34c.643 1.188-.008 2.775-1.43 3.544l-16.783 9.08c-1.422.77-3.175.32-3.898-1.018L53.686 64.453z" fill="#FF668A"/><path d="M57.632 64.65c.152.027.335.01.462-.059l2.992-1.618 5.51 10.185a.691.691 0 00.66.356c.108-.003.171-.038.256-.084a.767.767 0 00.333-.399l1.228-3.764 3.96.984a.656.656 0 00.716-.25.718.718 0 00.062-.747l-5.51-10.185 5.92-3.203a.691.691 0 00.356-.659c-.015-.129-.163-1.365-1.112-2.004-.419-.267-1.14-.535-2.198-.21a.377.377 0 00-.139.048l-14.916 8.07-.107.058c-.115.09-1.104.9-.855 1.917.275 1.167 1.86 1.462 2.382 1.564zm-.702-2.363l14.79-8.002c.406-.11.74-.1.962.055.209.134.324.346.396.581l-6.047 3.272a.7.7 0 00-.282.948l5.085 9.4-3.047-.765a.637.637 0 00-.484.07.766.766 0 00-.332.399l-.922 2.858-5.086-9.4a.7.7 0 00-.949-.282l-3.373 1.825c-.935-.207-1.052-.474-1.052-.474-.013-.075.163-.307.34-.485z" fill="#FF668A"/><path d="M65.812 66.231l.299.908a.324.324 0 00.288.228c.087.008.14.007.204-.028a.446.446 0 00.126-.123l.524-.805.96.002a.327.327 0 00.308-.194c.05-.11.045-.271-.034-.366l-.596-.747.273-.915c.039-.131.002-.249-.088-.365a.374.374 0 00-.369-.074l-.896.32-.796-.557c-.1-.083-.24-.09-.367-.02a.376.376 0 00-.184.319l.031.97-.759.575a.416.416 0 00-.14.35c.016.13.127.234.258.272l.958.25zm.313-.992a.373.373 0 00.141-.296l-.013-.432.353.248a.37.37 0 00.325.043l.417-.143-.127.426a.357.357 0 00.064.321l.27.348-.475-.017a.349.349 0 00-.171.038.449.449 0 00-.126.123l-.236.374-.143-.416c-.036-.118-.125-.18-.234-.23l-.425-.127.38-.26z" fill="#FF668A"/></svg>