<svg width="185" height="188" fill="none" xmlns="http://www.w3.org/2000/svg"><path d="M137.344 48.229c24.767 25.064 24.767 65.702 0 90.767-24.767 25.064-64.921 25.064-89.688 0-24.767-25.065-24.767-65.703 0-90.767 24.767-25.065 64.921-25.065 89.688 0z" fill="#B0EFFF" stroke="#00BDED" stroke-width="4"/><path d="M95.047 136.226c-.111 0-.222 0-.278-.057l-25.041-5.225a1.877 1.877 0 01-.666-.338c-8.052-6.799-11.716-17.475-9.606-27.871 2.443-12.025 12.382-21.24 24.375-22.758l3.887-19.161c-2.332-.956-3.665-3.484-3.165-6.07l.222-.954a5.418 5.418 0 012.276-3.428 5.279 5.279 0 013.998-.787l15.769 3.26c2.888.617 4.72 3.483 4.165 6.35l-.223.954c-.499 2.529-2.72 4.327-5.219 4.327h-.055l-3.887 19.162c10.439 6.18 15.991 18.599 13.492 30.624-2.11 10.396-9.661 18.713-19.655 21.747-.111.225-.222.225-.389.225zm-24.32-8.036l24.264 5.057c8.829-2.809 15.436-10.227 17.324-19.386 2.277-11.126-3.054-22.645-12.993-27.984-.555-.28-.888-.955-.721-1.63l4.386-21.577a1.455 1.455 0 011.721-1.124l.444.112c1.278.282 2.555-.561 2.832-1.91l.222-.955c.278-1.293-.555-2.585-1.887-2.866l-15.77-3.26c-.61-.112-1.277 0-1.832.338-.555.337-.888.899-1.055 1.573l-.222.956c-.278 1.292.555 2.584 1.888 2.865l.444.113c.389.056.722.28.944.618.222.337.278.73.222 1.124l-4.386 21.578c-.111.618-.667 1.123-1.333 1.18-11.16.955-20.6 9.384-22.82 20.51a25.748 25.748 0 008.328 24.668zM120.81 75.2c-.388 1.799-2.11 2.979-3.886 2.586-1.777-.394-2.943-2.136-2.554-3.934.388-1.798 2.109-2.978 3.886-2.585 1.777.394 2.943 2.136 2.554 3.934zm8.274-6.63c-.278 1.349-1.555 2.192-2.888 1.91-1.332-.28-2.165-1.573-1.887-2.921.277-1.349 1.554-2.192 2.887-1.91 1.332.28 2.165 1.573 1.888 2.921z" fill="#00BDED"/><path d="M65.619 106.163s27.762 11.744 42.92-2.248c.223-.168.389-.393.611-.562 0 0 3.443 20.398-16.935 25.118l-20.988-4.495c0-.056-7.829-8.935-5.608-17.813z" fill="#00BDED"/></svg>