<svg width="51" height="44" fill="none" xmlns="http://www.w3.org/2000/svg"><path d="M48.233.714h-8.294c-.571 0-1.1.305-1.385.8l-11.67 20.212a1.6 1.6 0 01-2.77 0L12.444 1.514a1.6 1.6 0 00-1.384-.8H2.766A1.6 1.6 0 001.38 3.113l22.733 39.375a1.6 1.6 0 002.77 0L49.62 3.113a1.6 1.6 0 00-1.386-2.4z" fill="#000"/><path d="M26.885 42.488L49.619 3.113a1.56 1.56 0 00.19-.597L27.886 40.488a1.6 1.6 0 01-2.771 0L2.38 1.113c-.058-.1-.092-.205-.126-.308-.914.308-1.398 1.4-.874 2.308l22.733 39.375a1.6 1.6 0 002.77 0z" fill="#000"/><path d="M48.233.714h-8.294c-.571 0-1.1.305-1.385.8l-11.67 20.212a1.6 1.6 0 01-2.77 0L12.444 1.514a1.6 1.6 0 00-1.384-.8H2.766A1.6 1.6 0 001.38 3.113l22.733 39.375a1.6 1.6 0 002.77 0L49.62 3.113a1.6 1.6 0 00-1.386-2.4z" stroke="#000" stroke-miterlimit="10"/></svg>