<svg width="168" height="168" fill="none" xmlns="http://www.w3.org/2000/svg"><path d="M124.586 43.414c22.415 22.415 22.415 58.757 0 81.172s-58.757 22.415-81.172 0-22.415-58.757 0-81.172 58.757-22.415 81.172 0z" fill="#FBD7A2" stroke="#FFA825" stroke-width="4"/><path d="M56.36 83.475a3.059 3.059 0 00-2.435 3.013c0 .701.207 1.32.62 1.857l-1.28 7.636c-.041.33.041.66.247.907.207.248.537.413.867.413h5.283c.33 0 .62-.124.867-.371.206-.248.33-.578.247-.908l-1.114-7.966c.289-.495.454-1.032.454-1.568a3.05 3.05 0 00-1.486-2.642V79.72l6.975 3.013v17.293a3.876 3.876 0 003.88 3.88h31.78a3.875 3.875 0 003.88-3.88V81.7l16.509-7.223c.413-.165.702-.619.661-1.073 0-.454-.33-.867-.743-1.032L83.848 59.495c-.248-.082-.536-.082-.743 0-12.918 4.911-34.133 12.67-36.114 12.795-.536 0-.99.371-1.114.908-.124.536.165 1.032.66 1.28l9.823 4.25v4.747zm-.66 11.598l1.155-6.893a1.064 1.064 0 00-.37-1.032c-.207-.165-.29-.413-.29-.66 0-.454.372-.826.826-.826.454 0 .825.372.825.826a.813.813 0 01-.206.536c-.207.248-.33.578-.248.908l.99 7.14H55.7zm47.134 4.952c0 .908-.743 1.61-1.61 1.61h-31.78c-.908 0-1.61-.743-1.61-1.61V83.722l15.85 6.852c.123.082.288.082.453.082.165 0 .289-.041.454-.082l18.284-7.925v17.376h-.041zm-52.417-26.29c8.172-2.56 27.736-9.948 33.101-11.97l34.587 11.804-34.01 14.735-22.452-9.7 18.945-2.517c.825.495 2.063.825 3.508.825 2.6 0 4.581-1.032 4.581-2.435 0-1.362-1.981-2.435-4.581-2.435-2.27 0-4.045.784-4.458 1.857L57.64 76.79l-7.223-3.055zm30.212.742c0-.536 1.362-1.28 3.467-1.28s3.467.785 3.467 1.28c0 .537-1.362 1.28-3.467 1.28-2.105.04-3.467-.743-3.467-1.28z" fill="#FFA825" stroke="#FFA825"/></svg>