<svg width="151" height="151" fill="none" xmlns="http://www.w3.org/2000/svg"><path d="M111.085 66.165c5.042 19.64-6.743 39.839-26.321 45.115a36.188 36.188 0 01-44.58-26.008c-5.04-19.64 6.744-39.84 26.322-45.115a36.19 36.19 0 0144.579 26.008z" fill="#B0EFFF" stroke="#00BDED" stroke-width="4"/><path d="M73.566 98.421a.664.664 0 01-.864.35l-9.442-3.72c-.353-.151-.52-.524-.382-.856l.344-.873a.664.664 0 01.864-.349l9.43 3.74c.353.152.52.525.382.856l-.332.852zm-2.211 2.563c-.138.332-.47.524-.75.389l-7.602-3.005c-.291-.115-.406-.484-.267-.816l.344-.873c.138-.332.47-.523.75-.388l7.602 3.005c.291.114.406.484.267.816l-.344.872zm-2.879.549a2.159 2.159 0 01-2.827 1.213 2.16 2.16 0 01-1.213-2.826m10.868-4.337l-11.56-4.57c-.737-.293-1.038-1.24-.67-2.153.142-.385.407-.698.698-.913.828-2.93-.022-6.095-.65-8.415-.26-.922-.453-1.723-.539-2.378-.424-2.67-.099-5.396.886-7.932a15.248 15.248 0 013.163-4.951 15.013 15.013 0 014.6-3.26 14.398 14.398 0 015.418-1.27c1.944-.077 3.84.259 5.646.983a14.106 14.106 0 014.792 3.153 14.49 14.49 0 013.098 4.642 14.46 14.46 0 011.124 5.527c.032 1.972-.34 3.93-1.066 5.79a15.295 15.295 0 01-1.79 3.303 15.41 15.41 0 01-1.83 2.097l.03.045-.674.542a4.42 4.42 0 01-.505.394c-.517.414-1.217.858-2.026 1.35-2.007 1.223-4.714 2.89-6.161 5.513.097.305.11.753-.13 1.355-.435 1.123-1.251 1.39-1.854 1.148zm-10.876-5.932l11.197 4.44c.035-.061.071-.123.099-.217a1.24 1.24 0 00.082-.282l-.354-.29.258-.537c1.583-3.231 4.666-5.12 6.908-6.51.764-.461 1.42-.877 1.848-1.233l.012-.02.472-.385c1.69-1.436 2.992-3.29 3.819-5.367a13.54 13.54 0 00.963-5.19 13.089 13.089 0 00-1.022-4.944 12.838 12.838 0 00-2.758-4.14 12.353 12.353 0 00-4.27-2.822 12.505 12.505 0 00-5.046-.88 12.714 12.714 0 00-4.845 1.136c-1.557.688-2.931 1.675-4.13 2.929a13.146 13.146 0 00-2.844 4.45c-.894 2.285-1.181 4.76-.802 7.127l.009.033c.08.57.277 1.317.508 2.195.696 2.58 1.649 6.135.554 9.57l-.13.364-.35.126c-.032.009-.112.1-.176.255.017.065.002.139-.002.192zm19.292-32.5a.76.76 0 01-.436-.997l2.277-5.744a.759.759 0 01.998-.436.76.76 0 01.436.998l-2.278 5.743a.795.795 0 01-.997.436zm15.678 25.576l-5.743-2.277a.76.76 0 01-.436-.998.76.76 0 01.997-.436l5.744 2.278a.76.76 0 01.436.997.795.795 0 01-.998.436zM60.543 67.35L54.8 65.072a.76.76 0 01-.437-.997.76.76 0 01.998-.436l5.743 2.277a.76.76 0 01.437.998.76.76 0 01-.998.436zm33.531-2.287a.827.827 0 01-.404-.346.742.742 0 01.322-1.023l5.46-2.896a.741.741 0 011.022.322.741.741 0 01-.321 1.023l-5.46 2.896a.73.73 0 01-.62.024zM70.6 55.771c-.196-.087-.377-.248-.45-.455l-1.996-5.87c-.123-.402.076-.837.478-.96.402-.123.837.076.96.478l2.008 5.85c.123.401-.075.836-.477.96a.74.74 0 01-.522-.003z" fill="#00BDED"/></svg>