<svg width="80" height="80" fill="none" xmlns="http://www.w3.org/2000/svg"><path d="M58.586 21.414c10.265 10.265 10.265 26.907 0 37.172-10.265 10.264-26.907 10.264-37.172 0-10.264-10.265-10.264-26.907 0-37.172 10.265-10.265 26.907-10.265 37.172 0z" stroke="#3E8BFF" stroke-width="4"/><mask id="a" style="mask-type:luminance" maskUnits="userSpaceOnUse" x="22" y="24" width="31" height="31"><path d="M53 24H22v31h31V24z" fill="#fff"/></mask><g mask="url(#a)"><path d="M50.483 26.75L23.02 37.396c-1.105.496-1.48 1.489-.267 2.027l7.046 2.251 17.036-10.583c.93-.664 1.882-.487 1.063.244L33.265 44.65l-.46 5.635c.426.87 1.206.875 1.703.442l4.048-3.85 6.933 5.218c1.61.959 2.486.34 2.833-1.416l4.547-21.644c.472-2.162-.333-3.114-2.386-2.286z" fill="#3E8BFF"/></g></svg>